<?xml version="1.0" encoding="UTF-8" standalone="no"?>
<!DOCTYPE svg PUBLIC "-//W3C//DTD SVG 1.1//EN"
 "http://www.w3.org/Graphics/SVG/1.1/DTD/svg11.dtd">
<!-- Generated by graphviz version 2.43.0 (0)
 -->
<!-- Title: controllers_diagram Pages: 1 -->
<svg width="905pt" height="283pt"
 viewBox="0.00 0.00 904.59 283.00" xmlns="http://www.w3.org/2000/svg" xmlns:xlink="http://www.w3.org/1999/xlink">
<g id="graph0" class="graph" transform="scale(1 1) rotate(0) translate(4 279)">
<title>controllers_diagram</title>
<polygon fill="transparent" stroke="transparent" points="-4,4 -4,-279 900.59,-279 900.59,4 -4,4"/>
<!-- LobbyMessagesController -->
<g id="node1" class="node">
<title>LobbyMessagesController</title>
<path fill="none" stroke="black" d="M12,-57.5C12,-57.5 152.53,-57.5 152.53,-57.5 158.53,-57.5 164.53,-63.5 164.53,-69.5 164.53,-69.5 164.53,-205.5 164.53,-205.5 164.53,-211.5 158.53,-217.5 152.53,-217.5 152.53,-217.5 12,-217.5 12,-217.5 6,-217.5 0,-211.5 0,-205.5 0,-205.5 0,-69.5 0,-69.5 0,-63.5 6,-57.5 12,-57.5"/>
<text text-anchor="middle" x="82.27" y="-202.3" font-family="Times,serif" font-size="14.00">LobbyMessagesController</text>
<polyline fill="none" stroke="black" points="0,-195.5 164.53,-195.5 "/>
<text text-anchor="start" x="8" y="-180.3" font-family="Times,serif" font-size="14.00">create</text>
<text text-anchor="start" x="8" y="-166.3" font-family="Times,serif" font-size="14.00">index</text>
<text text-anchor="start" x="8" y="-152.3" font-family="Times,serif" font-size="14.00">new_messages</text>
<text text-anchor="start" x="8" y="-138.3" font-family="Times,serif" font-size="14.00">show</text>
<polyline fill="none" stroke="black" points="0,-131.5 164.53,-131.5 "/>
<polyline fill="none" stroke="black" points="0,-107.5 164.53,-107.5 "/>
<text text-anchor="start" x="8" y="-92.3" font-family="Times,serif" font-size="14.00">lobby_message_params</text>
<text text-anchor="start" x="8" y="-78.3" font-family="Times,serif" font-size="14.00">sanitize_page_params</text>
<text text-anchor="start" x="8" y="-64.3" font-family="Times,serif" font-size="14.00">set_lobby_message</text>
</g>
<!-- QueuedVideosController -->
<g id="node2" class="node">
<title>QueuedVideosController</title>
<path fill="none" stroke="black" d="M194.31,-43.5C194.31,-43.5 326.22,-43.5 326.22,-43.5 332.22,-43.5 338.22,-49.5 338.22,-55.5 338.22,-55.5 338.22,-219.5 338.22,-219.5 338.22,-225.5 332.22,-231.5 326.22,-231.5 326.22,-231.5 194.31,-231.5 194.31,-231.5 188.31,-231.5 182.31,-225.5 182.31,-219.5 182.31,-219.5 182.31,-55.5 182.31,-55.5 182.31,-49.5 188.31,-43.5 194.31,-43.5"/>
<text text-anchor="middle" x="260.27" y="-216.3" font-family="Times,serif" font-size="14.00">QueuedVideosController</text>
<polyline fill="none" stroke="black" points="182.31,-209.5 338.22,-209.5 "/>
<text text-anchor="start" x="190.31" y="-194.3" font-family="Times,serif" font-size="14.00">create</text>
<text text-anchor="start" x="190.31" y="-180.3" font-family="Times,serif" font-size="14.00">destroy</text>
<text text-anchor="start" x="190.31" y="-166.3" font-family="Times,serif" font-size="14.00">index</text>
<text text-anchor="start" x="190.31" y="-152.3" font-family="Times,serif" font-size="14.00">new_videos</text>
<text text-anchor="start" x="190.31" y="-138.3" font-family="Times,serif" font-size="14.00">show</text>
<text text-anchor="start" x="190.31" y="-124.3" font-family="Times,serif" font-size="14.00">update</text>
<polyline fill="none" stroke="black" points="182.31,-117.5 338.22,-117.5 "/>
<polyline fill="none" stroke="black" points="182.31,-93.5 338.22,-93.5 "/>
<text text-anchor="start" x="190.31" y="-78.3" font-family="Times,serif" font-size="14.00">queued_video_params</text>
<text text-anchor="start" x="190.31" y="-64.3" font-family="Times,serif" font-size="14.00">sanitize_page_params</text>
<text text-anchor="start" x="190.31" y="-50.3" font-family="Times,serif" font-size="14.00">set_queued_video</text>
</g>
<!-- ApplicationController -->
<g id="node3" class="node">
<title>ApplicationController</title>
<path fill="none" stroke="black" d="M368.44,-0.5C368.44,-0.5 484.09,-0.5 484.09,-0.5 490.09,-0.5 496.09,-6.5 496.09,-12.5 496.09,-12.5 496.09,-262.5 496.09,-262.5 496.09,-268.5 490.09,-274.5 484.09,-274.5 484.09,-274.5 368.44,-274.5 368.44,-274.5 362.44,-274.5 356.44,-268.5 356.44,-262.5 356.44,-262.5 356.44,-12.5 356.44,-12.5 356.44,-6.5 362.44,-0.5 368.44,-0.5"/>
<text text-anchor="middle" x="426.27" y="-259.3" font-family="Times,serif" font-size="14.00">ApplicationController</text>
<polyline fill="none" stroke="black" points="356.44,-252.5 496.09,-252.5 "/>
<text text-anchor="start" x="364.44" y="-237.3" font-family="Times,serif" font-size="14.00">_helper_methods</text>
<text text-anchor="start" x="364.44" y="-223.3" font-family="Times,serif" font-size="14.00">_helper_methods=</text>
<text text-anchor="start" x="364.44" y="-209.3" font-family="Times,serif" font-size="14.00">_helper_methods?</text>
<text text-anchor="start" x="364.44" y="-195.3" font-family="Times,serif" font-size="14.00">_helpers</text>
<text text-anchor="start" x="364.44" y="-181.3" font-family="Times,serif" font-size="14.00">_helpers=</text>
<text text-anchor="start" x="364.44" y="-167.3" font-family="Times,serif" font-size="14.00">_helpers?</text>
<text text-anchor="start" x="364.44" y="-153.3" font-family="Times,serif" font-size="14.00">current_user</text>
<text text-anchor="start" x="364.44" y="-139.3" font-family="Times,serif" font-size="14.00">helpers_path</text>
<text text-anchor="start" x="364.44" y="-125.3" font-family="Times,serif" font-size="14.00">helpers_path=</text>
<text text-anchor="start" x="364.44" y="-111.3" font-family="Times,serif" font-size="14.00">helpers_path?</text>
<text text-anchor="start" x="364.44" y="-97.3" font-family="Times,serif" font-size="14.00">include_all_helpers</text>
<text text-anchor="start" x="364.44" y="-83.3" font-family="Times,serif" font-size="14.00">include_all_helpers=</text>
<text text-anchor="start" x="364.44" y="-69.3" font-family="Times,serif" font-size="14.00">include_all_helpers?</text>
<text text-anchor="start" x="364.44" y="-55.3" font-family="Times,serif" font-size="14.00">require_login</text>
<polyline fill="none" stroke="black" points="356.44,-48.5 496.09,-48.5 "/>
<polyline fill="none" stroke="black" points="356.44,-24.5 496.09,-24.5 "/>
</g>
<!-- UsersController -->
<g id="node4" class="node">
<title>UsersController</title>
<path fill="none" stroke="black" d="M526.55,-57.5C526.55,-57.5 607.98,-57.5 607.98,-57.5 613.98,-57.5 619.98,-63.5 619.98,-69.5 619.98,-69.5 619.98,-205.5 619.98,-205.5 619.98,-211.5 613.98,-217.5 607.98,-217.5 607.98,-217.5 526.55,-217.5 526.55,-217.5 520.55,-217.5 514.55,-211.5 514.55,-205.5 514.55,-205.5 514.55,-69.5 514.55,-69.5 514.55,-63.5 520.55,-57.5 526.55,-57.5"/>
<text text-anchor="middle" x="567.27" y="-202.3" font-family="Times,serif" font-size="14.00">UsersController</text>
<polyline fill="none" stroke="black" points="514.55,-195.5 619.98,-195.5 "/>
<text text-anchor="start" x="522.55" y="-180.3" font-family="Times,serif" font-size="14.00">create</text>
<text text-anchor="start" x="522.55" y="-166.3" font-family="Times,serif" font-size="14.00">destroy</text>
<text text-anchor="start" x="522.55" y="-152.3" font-family="Times,serif" font-size="14.00">index</text>
<text text-anchor="start" x="522.55" y="-138.3" font-family="Times,serif" font-size="14.00">show</text>
<text text-anchor="start" x="522.55" y="-124.3" font-family="Times,serif" font-size="14.00">update</text>
<polyline fill="none" stroke="black" points="514.55,-117.5 619.98,-117.5 "/>
<polyline fill="none" stroke="black" points="514.55,-93.5 619.98,-93.5 "/>
<text text-anchor="start" x="522.55" y="-78.3" font-family="Times,serif" font-size="14.00">set_user</text>
<text text-anchor="start" x="522.55" y="-64.3" font-family="Times,serif" font-size="14.00">user_params</text>
</g>
<!-- SessionsController -->
<g id="node5" class="node">
<title>SessionsController</title>
<path fill="none" stroke="black" d="M650.38,-70.5C650.38,-70.5 748.16,-70.5 748.16,-70.5 754.16,-70.5 760.16,-76.5 760.16,-82.5 760.16,-82.5 760.16,-192.5 760.16,-192.5 760.16,-198.5 754.16,-204.5 748.16,-204.5 748.16,-204.5 650.38,-204.5 650.38,-204.5 644.38,-204.5 638.38,-198.5 638.38,-192.5 638.38,-192.5 638.38,-82.5 638.38,-82.5 638.38,-76.5 644.38,-70.5 650.38,-70.5"/>
<text text-anchor="middle" x="699.27" y="-189.3" font-family="Times,serif" font-size="14.00">SessionsController</text>
<polyline fill="none" stroke="black" points="638.38,-182.5 760.16,-182.5 "/>
<text text-anchor="start" x="646.38" y="-167.3" font-family="Times,serif" font-size="14.00">create</text>
<text text-anchor="start" x="646.38" y="-153.3" font-family="Times,serif" font-size="14.00">destroy</text>
<text text-anchor="start" x="646.38" y="-139.3" font-family="Times,serif" font-size="14.00">new</text>
<text text-anchor="start" x="646.38" y="-125.3" font-family="Times,serif" font-size="14.00">show</text>
<polyline fill="none" stroke="black" points="638.38,-118.5 760.16,-118.5 "/>
<polyline fill="none" stroke="black" points="638.38,-94.5 760.16,-94.5 "/>
</g>
<!-- LobbiesController -->
<g id="node6" class="node">
<title>LobbiesController</title>
<path fill="none" stroke="black" d="M789.94,-64.5C789.94,-64.5 884.59,-64.5 884.59,-64.5 890.59,-64.5 896.59,-70.5 896.59,-76.5 896.59,-76.5 896.59,-198.5 896.59,-198.5 896.59,-204.5 890.59,-210.5 884.59,-210.5 884.59,-210.5 789.94,-210.5 789.94,-210.5 783.94,-210.5 777.94,-204.5 777.94,-198.5 777.94,-198.5 777.94,-76.5 777.94,-76.5 777.94,-70.5 783.94,-64.5 789.94,-64.5"/>
<text text-anchor="middle" x="837.27" y="-195.3" font-family="Times,serif" font-size="14.00">LobbiesController</text>
<polyline fill="none" stroke="black" points="777.94,-188.5 896.59,-188.5 "/>
<text text-anchor="start" x="785.94" y="-173.3" font-family="Times,serif" font-size="14.00">create</text>
<text text-anchor="start" x="785.94" y="-159.3" font-family="Times,serif" font-size="14.00">destroy</text>
<text text-anchor="start" x="785.94" y="-145.3" font-family="Times,serif" font-size="14.00">index</text>
<text text-anchor="start" x="785.94" y="-131.3" font-family="Times,serif" font-size="14.00">show</text>
<polyline fill="none" stroke="black" points="777.94,-124.5 896.59,-124.5 "/>
<polyline fill="none" stroke="black" points="777.94,-100.5 896.59,-100.5 "/>
<text text-anchor="start" x="785.94" y="-85.3" font-family="Times,serif" font-size="14.00">lobby_params</text>
<text text-anchor="start" x="785.94" y="-71.3" font-family="Times,serif" font-size="14.00">set_lobby</text>
</g>
</g>
</svg>
