<?xml version="1.0" encoding="UTF-8" standalone="no"?>
<!DOCTYPE svg PUBLIC "-//W3C//DTD SVG 1.1//EN"
 "http://www.w3.org/Graphics/SVG/1.1/DTD/svg11.dtd">
<!-- Generated by graphviz version 2.43.0 (0)
 -->
<!-- Title: controllers_diagram Pages: 1 -->
<svg width="1252pt" height="1165pt"
 viewBox="0.00 0.00 1252.08 1165.00" xmlns="http://www.w3.org/2000/svg" xmlns:xlink="http://www.w3.org/1999/xlink">
<g id="graph0" class="graph" transform="scale(1 1) rotate(0) translate(4 1161)">
<title>controllers_diagram</title>
<polygon fill="transparent" stroke="transparent" points="-4,4 -4,-1161 1248.08,-1161 1248.08,4 -4,4"/>
<!-- _diagram_info -->
<g id="node1" class="node">
<title>_diagram_info</title>
<text text-anchor="start" x="1044" y="-86.6" font-family="Times,serif" font-size="13.00">Controllers diagram</text>
<text text-anchor="start" x="1044" y="-73.6" font-family="Times,serif" font-size="13.00">Date: Nov 23 2019 &#45; 14:26</text>
<text text-anchor="start" x="1044" y="-60.6" font-family="Times,serif" font-size="13.00">Migration version: 0</text>
<text text-anchor="start" x="1044" y="-47.6" font-family="Times,serif" font-size="13.00">Generated by RailRoady 1.5.3</text>
<text text-anchor="start" x="1044" y="-34.6" font-family="Times,serif" font-size="13.00">http://railroady.prestonlee.com</text>
</g>
<!-- LobbyMessagesController -->
<g id="node2" class="node">
<title>LobbyMessagesController</title>
<path fill="none" stroke="black" d="M261.25,-233C261.25,-233 401.79,-233 401.79,-233 407.79,-233 413.79,-239 413.79,-245 413.79,-245 413.79,-381 413.79,-381 413.79,-387 407.79,-393 401.79,-393 401.79,-393 261.25,-393 261.25,-393 255.25,-393 249.25,-387 249.25,-381 249.25,-381 249.25,-245 249.25,-245 249.25,-239 255.25,-233 261.25,-233"/>
<text text-anchor="middle" x="331.52" y="-377.8" font-family="Times,serif" font-size="14.00">LobbyMessagesController</text>
<polyline fill="none" stroke="black" points="249.25,-371 413.79,-371 "/>
<text text-anchor="start" x="257.25" y="-355.8" font-family="Times,serif" font-size="14.00">create</text>
<text text-anchor="start" x="257.25" y="-341.8" font-family="Times,serif" font-size="14.00">index</text>
<text text-anchor="start" x="257.25" y="-327.8" font-family="Times,serif" font-size="14.00">new_messages</text>
<text text-anchor="start" x="257.25" y="-313.8" font-family="Times,serif" font-size="14.00">show</text>
<polyline fill="none" stroke="black" points="249.25,-307 413.79,-307 "/>
<polyline fill="none" stroke="black" points="249.25,-283 413.79,-283 "/>
<text text-anchor="start" x="257.25" y="-267.8" font-family="Times,serif" font-size="14.00">lobby_message_params</text>
<text text-anchor="start" x="257.25" y="-253.8" font-family="Times,serif" font-size="14.00">sanitize_page_params</text>
<text text-anchor="start" x="257.25" y="-239.8" font-family="Times,serif" font-size="14.00">set_lobby_message</text>
</g>
<!-- QueuedVideosController -->
<g id="node3" class="node">
<title>QueuedVideosController</title>
<path fill="none" stroke="black" d="M593.15,-224.5C593.15,-224.5 725.07,-224.5 725.07,-224.5 731.07,-224.5 737.07,-230.5 737.07,-236.5 737.07,-236.5 737.07,-400.5 737.07,-400.5 737.07,-406.5 731.07,-412.5 725.07,-412.5 725.07,-412.5 593.15,-412.5 593.15,-412.5 587.15,-412.5 581.15,-406.5 581.15,-400.5 581.15,-400.5 581.15,-236.5 581.15,-236.5 581.15,-230.5 587.15,-224.5 593.15,-224.5"/>
<text text-anchor="middle" x="659.11" y="-397.3" font-family="Times,serif" font-size="14.00">QueuedVideosController</text>
<polyline fill="none" stroke="black" points="581.15,-390.5 737.07,-390.5 "/>
<text text-anchor="start" x="589.15" y="-375.3" font-family="Times,serif" font-size="14.00">create</text>
<text text-anchor="start" x="589.15" y="-361.3" font-family="Times,serif" font-size="14.00">destroy</text>
<text text-anchor="start" x="589.15" y="-347.3" font-family="Times,serif" font-size="14.00">index</text>
<text text-anchor="start" x="589.15" y="-333.3" font-family="Times,serif" font-size="14.00">new_videos</text>
<text text-anchor="start" x="589.15" y="-319.3" font-family="Times,serif" font-size="14.00">show</text>
<text text-anchor="start" x="589.15" y="-305.3" font-family="Times,serif" font-size="14.00">update</text>
<polyline fill="none" stroke="black" points="581.15,-298.5 737.07,-298.5 "/>
<polyline fill="none" stroke="black" points="581.15,-274.5 737.07,-274.5 "/>
<text text-anchor="start" x="589.15" y="-259.3" font-family="Times,serif" font-size="14.00">queued_video_params</text>
<text text-anchor="start" x="589.15" y="-245.3" font-family="Times,serif" font-size="14.00">sanitize_page_params</text>
<text text-anchor="start" x="589.15" y="-231.3" font-family="Times,serif" font-size="14.00">set_queued_video</text>
</g>
<!-- ApplicationController -->
<g id="node4" class="node">
<title>ApplicationController</title>
<path fill="none" stroke="black" d="M433.8,-401.66C433.8,-401.66 549.44,-401.66 549.44,-401.66 555.44,-401.66 561.44,-407.66 561.44,-413.66 561.44,-413.66 561.44,-663.66 561.44,-663.66 561.44,-669.66 555.44,-675.66 549.44,-675.66 549.44,-675.66 433.8,-675.66 433.8,-675.66 427.8,-675.66 421.8,-669.66 421.8,-663.66 421.8,-663.66 421.8,-413.66 421.8,-413.66 421.8,-407.66 427.8,-401.66 433.8,-401.66"/>
<text text-anchor="middle" x="491.62" y="-660.46" font-family="Times,serif" font-size="14.00">ApplicationController</text>
<polyline fill="none" stroke="black" points="421.8,-653.66 561.44,-653.66 "/>
<text text-anchor="start" x="429.8" y="-638.46" font-family="Times,serif" font-size="14.00">require_login</text>
<text text-anchor="start" x="429.8" y="-624.46" font-family="Times,serif" font-size="14.00">_helper_methods=</text>
<text text-anchor="start" x="429.8" y="-610.46" font-family="Times,serif" font-size="14.00">_helper_methods?</text>
<text text-anchor="start" x="429.8" y="-596.46" font-family="Times,serif" font-size="14.00">_helpers</text>
<text text-anchor="start" x="429.8" y="-582.46" font-family="Times,serif" font-size="14.00">_helpers=</text>
<text text-anchor="start" x="429.8" y="-568.46" font-family="Times,serif" font-size="14.00">_helpers?</text>
<text text-anchor="start" x="429.8" y="-554.46" font-family="Times,serif" font-size="14.00">current_user</text>
<text text-anchor="start" x="429.8" y="-540.46" font-family="Times,serif" font-size="14.00">helpers_path</text>
<text text-anchor="start" x="429.8" y="-526.46" font-family="Times,serif" font-size="14.00">helpers_path=</text>
<text text-anchor="start" x="429.8" y="-512.46" font-family="Times,serif" font-size="14.00">helpers_path?</text>
<text text-anchor="start" x="429.8" y="-498.46" font-family="Times,serif" font-size="14.00">include_all_helpers</text>
<text text-anchor="start" x="429.8" y="-484.46" font-family="Times,serif" font-size="14.00">include_all_helpers=</text>
<text text-anchor="start" x="429.8" y="-470.46" font-family="Times,serif" font-size="14.00">include_all_helpers?</text>
<text text-anchor="start" x="429.8" y="-456.46" font-family="Times,serif" font-size="14.00">_helper_methods</text>
<polyline fill="none" stroke="black" points="421.8,-449.66 561.44,-449.66 "/>
<polyline fill="none" stroke="black" points="421.8,-425.66 561.44,-425.66 "/>
</g>
<!-- ApplicationController&#45;&gt;LobbyMessagesController -->
<g id="edge1" class="edge">
<title>ApplicationController&#45;&gt;LobbyMessagesController</title>
<path fill="none" stroke="black" d="M421.63,-440.01C410.52,-424.35 399.16,-408.33 388.4,-393.16"/>
</g>
<!-- ApplicationController&#45;&gt;QueuedVideosController -->
<g id="edge2" class="edge">
<title>ApplicationController&#45;&gt;QueuedVideosController</title>
<path fill="none" stroke="black" d="M561.68,-446.57C570.2,-435.37 578.91,-423.92 587.45,-412.7"/>
</g>
<!-- UsersController -->
<g id="node5" class="node">
<title>UsersController</title>
<path fill="none" stroke="black" d="M445.33,-735.68C445.33,-735.68 526.76,-735.68 526.76,-735.68 532.76,-735.68 538.76,-741.68 538.76,-747.68 538.76,-747.68 538.76,-883.68 538.76,-883.68 538.76,-889.68 532.76,-895.68 526.76,-895.68 526.76,-895.68 445.33,-895.68 445.33,-895.68 439.33,-895.68 433.33,-889.68 433.33,-883.68 433.33,-883.68 433.33,-747.68 433.33,-747.68 433.33,-741.68 439.33,-735.68 445.33,-735.68"/>
<text text-anchor="middle" x="486.04" y="-880.48" font-family="Times,serif" font-size="14.00">UsersController</text>
<polyline fill="none" stroke="black" points="433.33,-873.68 538.76,-873.68 "/>
<text text-anchor="start" x="441.33" y="-858.48" font-family="Times,serif" font-size="14.00">create</text>
<text text-anchor="start" x="441.33" y="-844.48" font-family="Times,serif" font-size="14.00">destroy</text>
<text text-anchor="start" x="441.33" y="-830.48" font-family="Times,serif" font-size="14.00">index</text>
<text text-anchor="start" x="441.33" y="-816.48" font-family="Times,serif" font-size="14.00">show</text>
<text text-anchor="start" x="441.33" y="-802.48" font-family="Times,serif" font-size="14.00">update</text>
<polyline fill="none" stroke="black" points="433.33,-795.68 538.76,-795.68 "/>
<polyline fill="none" stroke="black" points="433.33,-771.68 538.76,-771.68 "/>
<text text-anchor="start" x="441.33" y="-756.48" font-family="Times,serif" font-size="14.00">set_user</text>
<text text-anchor="start" x="441.33" y="-742.48" font-family="Times,serif" font-size="14.00">user_params</text>
</g>
<!-- ApplicationController&#45;&gt;UsersController -->
<g id="edge3" class="edge">
<title>ApplicationController&#45;&gt;UsersController</title>
<path fill="none" stroke="black" d="M488.86,-675.95C488.45,-696.36 488.03,-716.8 487.66,-735.51"/>
</g>
<!-- SessionsController -->
<g id="node6" class="node">
<title>SessionsController</title>
<path fill="none" stroke="black" d="M703.64,-564.28C703.64,-564.28 801.42,-564.28 801.42,-564.28 807.42,-564.28 813.42,-570.28 813.42,-576.28 813.42,-576.28 813.42,-686.28 813.42,-686.28 813.42,-692.28 807.42,-698.28 801.42,-698.28 801.42,-698.28 703.64,-698.28 703.64,-698.28 697.64,-698.28 691.64,-692.28 691.64,-686.28 691.64,-686.28 691.64,-576.28 691.64,-576.28 691.64,-570.28 697.64,-564.28 703.64,-564.28"/>
<text text-anchor="middle" x="752.53" y="-683.08" font-family="Times,serif" font-size="14.00">SessionsController</text>
<polyline fill="none" stroke="black" points="691.64,-676.28 813.42,-676.28 "/>
<text text-anchor="start" x="699.64" y="-661.08" font-family="Times,serif" font-size="14.00">create</text>
<text text-anchor="start" x="699.64" y="-647.08" font-family="Times,serif" font-size="14.00">destroy</text>
<text text-anchor="start" x="699.64" y="-633.08" font-family="Times,serif" font-size="14.00">new</text>
<text text-anchor="start" x="699.64" y="-619.08" font-family="Times,serif" font-size="14.00">show</text>
<polyline fill="none" stroke="black" points="691.64,-612.28 813.42,-612.28 "/>
<polyline fill="none" stroke="black" points="691.64,-588.28 813.42,-588.28 "/>
</g>
<!-- ApplicationController&#45;&gt;SessionsController -->
<g id="edge4" class="edge">
<title>ApplicationController&#45;&gt;SessionsController</title>
<path fill="none" stroke="black" d="M561.54,-563.48C601.99,-577.84 652.43,-595.75 691.31,-609.55"/>
</g>
<!-- LobbiesController -->
<g id="node7" class="node">
<title>LobbiesController</title>
<path fill="none" stroke="black" d="M180,-548.43C180,-548.43 274.65,-548.43 274.65,-548.43 280.65,-548.43 286.65,-554.43 286.65,-560.43 286.65,-560.43 286.65,-682.43 286.65,-682.43 286.65,-688.43 280.65,-694.43 274.65,-694.43 274.65,-694.43 180,-694.43 180,-694.43 174,-694.43 168,-688.43 168,-682.43 168,-682.43 168,-560.43 168,-560.43 168,-554.43 174,-548.43 180,-548.43"/>
<text text-anchor="middle" x="227.32" y="-679.23" font-family="Times,serif" font-size="14.00">LobbiesController</text>
<polyline fill="none" stroke="black" points="168,-672.43 286.65,-672.43 "/>
<text text-anchor="start" x="176" y="-657.23" font-family="Times,serif" font-size="14.00">create</text>
<text text-anchor="start" x="176" y="-643.23" font-family="Times,serif" font-size="14.00">destroy</text>
<text text-anchor="start" x="176" y="-629.23" font-family="Times,serif" font-size="14.00">index</text>
<text text-anchor="start" x="176" y="-615.23" font-family="Times,serif" font-size="14.00">show</text>
<polyline fill="none" stroke="black" points="168,-608.43 286.65,-608.43 "/>
<polyline fill="none" stroke="black" points="168,-584.43 286.65,-584.43 "/>
<text text-anchor="start" x="176" y="-569.23" font-family="Times,serif" font-size="14.00">lobby_params</text>
<text text-anchor="start" x="176" y="-555.23" font-family="Times,serif" font-size="14.00">set_lobby</text>
</g>
<!-- ApplicationController&#45;&gt;LobbiesController -->
<g id="edge5" class="edge">
<title>ApplicationController&#45;&gt;LobbiesController</title>
<path fill="none" stroke="black" d="M421.49,-560.62C379.59,-573.74 326.93,-590.23 287.02,-602.73"/>
</g>
<!-- ActiveStorage::DirectUploadsController -->
<g id="node8" class="node">
<title>ActiveStorage::DirectUploadsController</title>
<path fill="none" stroke="black" d="M180,-784.5C180,-784.5 399.05,-784.5 399.05,-784.5 405.05,-784.5 411.05,-790.5 411.05,-796.5 411.05,-796.5 411.05,-890.5 411.05,-890.5 411.05,-896.5 405.05,-902.5 399.05,-902.5 399.05,-902.5 180,-902.5 180,-902.5 174,-902.5 168,-896.5 168,-890.5 168,-890.5 168,-796.5 168,-796.5 168,-790.5 174,-784.5 180,-784.5"/>
<text text-anchor="middle" x="289.52" y="-887.3" font-family="Times,serif" font-size="14.00">ActiveStorage::DirectUploadsController</text>
<polyline fill="none" stroke="black" points="168,-880.5 411.05,-880.5 "/>
<text text-anchor="start" x="176" y="-865.3" font-family="Times,serif" font-size="14.00">create</text>
<polyline fill="none" stroke="black" points="168,-858.5 411.05,-858.5 "/>
<polyline fill="none" stroke="black" points="168,-834.5 411.05,-834.5 "/>
<text text-anchor="start" x="176" y="-819.3" font-family="Times,serif" font-size="14.00">_layout</text>
<text text-anchor="start" x="176" y="-805.3" font-family="Times,serif" font-size="14.00">blob_args</text>
<text text-anchor="start" x="176" y="-791.3" font-family="Times,serif" font-size="14.00">direct_upload_json</text>
</g>
<!-- ActiveStorage::BaseController -->
<g id="node9" class="node">
<title>ActiveStorage::BaseController</title>
<path fill="none" stroke="black" d="M12,-252.5C12,-252.5 176.62,-252.5 176.62,-252.5 182.62,-252.5 188.62,-258.5 188.62,-264.5 188.62,-264.5 188.62,-332.5 188.62,-332.5 188.62,-338.5 182.62,-344.5 176.62,-344.5 176.62,-344.5 12,-344.5 12,-344.5 6,-344.5 0,-338.5 0,-332.5 0,-332.5 0,-264.5 0,-264.5 0,-258.5 6,-252.5 12,-252.5"/>
<text text-anchor="middle" x="94.31" y="-329.3" font-family="Times,serif" font-size="14.00">ActiveStorage::BaseController</text>
<polyline fill="none" stroke="black" points="0,-322.5 188.62,-322.5 "/>
<polyline fill="none" stroke="black" points="0,-298.5 188.62,-298.5 "/>
<polyline fill="none" stroke="black" points="0,-274.5 188.62,-274.5 "/>
<text text-anchor="start" x="8" y="-259.3" font-family="Times,serif" font-size="14.00">_layout</text>
</g>
<!-- ActiveStorage::BlobsController -->
<g id="node10" class="node">
<title>ActiveStorage::BlobsController</title>
<path fill="none" stroke="black" d="M796,-0.5C796,-0.5 966.08,-0.5 966.08,-0.5 972.08,-0.5 978.08,-6.5 978.08,-12.5 978.08,-12.5 978.08,-78.5 978.08,-78.5 978.08,-84.5 972.08,-90.5 966.08,-90.5 966.08,-90.5 796,-90.5 796,-90.5 790,-90.5 784,-84.5 784,-78.5 784,-78.5 784,-12.5 784,-12.5 784,-6.5 790,-0.5 796,-0.5"/>
<text text-anchor="middle" x="881.04" y="-75.3" font-family="Times,serif" font-size="14.00">ActiveStorage::BlobsController</text>
<polyline fill="none" stroke="black" points="784,-68.5 978.08,-68.5 "/>
<text text-anchor="start" x="792" y="-53.3" font-family="Times,serif" font-size="14.00">show</text>
<polyline fill="none" stroke="black" points="784,-46.5 978.08,-46.5 "/>
<polyline fill="none" stroke="black" points="784,-22.5 978.08,-22.5 "/>
<text text-anchor="start" x="792" y="-7.3" font-family="Times,serif" font-size="14.00">_layout</text>
</g>
<!-- ActiveStorage::RepresentationsController -->
<g id="node11" class="node">
<title>ActiveStorage::RepresentationsController</title>
<path fill="none" stroke="black" d="M488,-84.5C488,-84.5 714.83,-84.5 714.83,-84.5 720.83,-84.5 726.83,-90.5 726.83,-96.5 726.83,-96.5 726.83,-162.5 726.83,-162.5 726.83,-168.5 720.83,-174.5 714.83,-174.5 714.83,-174.5 488,-174.5 488,-174.5 482,-174.5 476,-168.5 476,-162.5 476,-162.5 476,-96.5 476,-96.5 476,-90.5 482,-84.5 488,-84.5"/>
<text text-anchor="middle" x="601.41" y="-159.3" font-family="Times,serif" font-size="14.00">ActiveStorage::RepresentationsController</text>
<polyline fill="none" stroke="black" points="476,-152.5 726.83,-152.5 "/>
<text text-anchor="start" x="484" y="-137.3" font-family="Times,serif" font-size="14.00">show</text>
<polyline fill="none" stroke="black" points="476,-130.5 726.83,-130.5 "/>
<polyline fill="none" stroke="black" points="476,-106.5 726.83,-106.5 "/>
<text text-anchor="start" x="484" y="-91.3" font-family="Times,serif" font-size="14.00">_layout</text>
</g>
<!-- ActiveStorage::DiskController -->
<g id="node12" class="node">
<title>ActiveStorage::DiskController</title>
<path fill="none" stroke="black" d="M712,-980.5C712,-980.5 875.86,-980.5 875.86,-980.5 881.86,-980.5 887.86,-986.5 887.86,-992.5 887.86,-992.5 887.86,-1142.5 887.86,-1142.5 887.86,-1148.5 881.86,-1154.5 875.86,-1154.5 875.86,-1154.5 712,-1154.5 712,-1154.5 706,-1154.5 700,-1148.5 700,-1142.5 700,-1142.5 700,-992.5 700,-992.5 700,-986.5 706,-980.5 712,-980.5"/>
<text text-anchor="middle" x="793.93" y="-1139.3" font-family="Times,serif" font-size="14.00">ActiveStorage::DiskController</text>
<polyline fill="none" stroke="black" points="700,-1132.5 887.86,-1132.5 "/>
<text text-anchor="start" x="708" y="-1117.3" font-family="Times,serif" font-size="14.00">show</text>
<text text-anchor="start" x="708" y="-1103.3" font-family="Times,serif" font-size="14.00">update</text>
<polyline fill="none" stroke="black" points="700,-1096.5 887.86,-1096.5 "/>
<polyline fill="none" stroke="black" points="700,-1072.5 887.86,-1072.5 "/>
<text text-anchor="start" x="708" y="-1057.3" font-family="Times,serif" font-size="14.00">_layout</text>
<text text-anchor="start" x="708" y="-1043.3" font-family="Times,serif" font-size="14.00">acceptable_content?</text>
<text text-anchor="start" x="708" y="-1029.3" font-family="Times,serif" font-size="14.00">decode_verified_key</text>
<text text-anchor="start" x="708" y="-1015.3" font-family="Times,serif" font-size="14.00">decode_verified_token</text>
<text text-anchor="start" x="708" y="-1001.3" font-family="Times,serif" font-size="14.00">disk_service</text>
<text text-anchor="start" x="708" y="-987.3" font-family="Times,serif" font-size="14.00">serve_file</text>
</g>
<!-- ActionMailbox::BaseController -->
<g id="node13" class="node">
<title>ActionMailbox::BaseController</title>
<path fill="none" stroke="black" d="M68,-1008.5C68,-1008.5 238.08,-1008.5 238.08,-1008.5 244.08,-1008.5 250.08,-1014.5 250.08,-1020.5 250.08,-1020.5 250.08,-1144.5 250.08,-1144.5 250.08,-1150.5 244.08,-1156.5 238.08,-1156.5 238.08,-1156.5 68,-1156.5 68,-1156.5 62,-1156.5 56,-1150.5 56,-1144.5 56,-1144.5 56,-1020.5 56,-1020.5 56,-1014.5 62,-1008.5 68,-1008.5"/>
<text text-anchor="middle" x="153.04" y="-1141.3" font-family="Times,serif" font-size="14.00">ActionMailbox::BaseController</text>
<polyline fill="none" stroke="black" points="56,-1134.5 250.08,-1134.5 "/>
<polyline fill="none" stroke="black" points="56,-1110.5 250.08,-1110.5 "/>
<polyline fill="none" stroke="black" points="56,-1086.5 250.08,-1086.5 "/>
<text text-anchor="start" x="64" y="-1071.3" font-family="Times,serif" font-size="14.00">_layout</text>
<text text-anchor="start" x="64" y="-1057.3" font-family="Times,serif" font-size="14.00">authenticate_by_password</text>
<text text-anchor="start" x="64" y="-1043.3" font-family="Times,serif" font-size="14.00">ensure_configured</text>
<text text-anchor="start" x="64" y="-1029.3" font-family="Times,serif" font-size="14.00">ingress_name</text>
<text text-anchor="start" x="64" y="-1015.3" font-family="Times,serif" font-size="14.00">password</text>
</g>
<!-- ActionMailbox::Ingresses::Postmark::InboundEmailsController -->
<g id="node14" class="node">
<title>ActionMailbox::Ingresses::Postmark::InboundEmailsController</title>
<path fill="none" stroke="black" d="M796,-140.5C796,-140.5 1144.96,-140.5 1144.96,-140.5 1150.96,-140.5 1156.96,-146.5 1156.96,-152.5 1156.96,-152.5 1156.96,-218.5 1156.96,-218.5 1156.96,-224.5 1150.96,-230.5 1144.96,-230.5 1144.96,-230.5 796,-230.5 796,-230.5 790,-230.5 784,-224.5 784,-218.5 784,-218.5 784,-152.5 784,-152.5 784,-146.5 790,-140.5 796,-140.5"/>
<text text-anchor="middle" x="970.48" y="-215.3" font-family="Times,serif" font-size="14.00">ActionMailbox::Ingresses::Postmark::InboundEmailsController</text>
<polyline fill="none" stroke="black" points="784,-208.5 1156.96,-208.5 "/>
<text text-anchor="start" x="792" y="-193.3" font-family="Times,serif" font-size="14.00">create</text>
<polyline fill="none" stroke="black" points="784,-186.5 1156.96,-186.5 "/>
<polyline fill="none" stroke="black" points="784,-162.5 1156.96,-162.5 "/>
<text text-anchor="start" x="792" y="-147.3" font-family="Times,serif" font-size="14.00">_layout</text>
</g>
<!-- ActionMailbox::Ingresses::Sendgrid::InboundEmailsController -->
<g id="node15" class="node">
<title>ActionMailbox::Ingresses::Sendgrid::InboundEmailsController</title>
<path fill="none" stroke="black" d="M68,-112.5C68,-112.5 414.62,-112.5 414.62,-112.5 420.62,-112.5 426.62,-118.5 426.62,-124.5 426.62,-124.5 426.62,-190.5 426.62,-190.5 426.62,-196.5 420.62,-202.5 414.62,-202.5 414.62,-202.5 68,-202.5 68,-202.5 62,-202.5 56,-196.5 56,-190.5 56,-190.5 56,-124.5 56,-124.5 56,-118.5 62,-112.5 68,-112.5"/>
<text text-anchor="middle" x="241.31" y="-187.3" font-family="Times,serif" font-size="14.00">ActionMailbox::Ingresses::Sendgrid::InboundEmailsController</text>
<polyline fill="none" stroke="black" points="56,-180.5 426.62,-180.5 "/>
<text text-anchor="start" x="64" y="-165.3" font-family="Times,serif" font-size="14.00">create</text>
<polyline fill="none" stroke="black" points="56,-158.5 426.62,-158.5 "/>
<polyline fill="none" stroke="black" points="56,-134.5 426.62,-134.5 "/>
<text text-anchor="start" x="64" y="-119.3" font-family="Times,serif" font-size="14.00">_layout</text>
</g>
<!-- ActionMailbox::Ingresses::Mandrill::InboundEmailsController -->
<g id="node16" class="node">
<title>ActionMailbox::Ingresses::Mandrill::InboundEmailsController</title>
<path fill="none" stroke="black" d="M712,-756.5C712,-756.5 1057.06,-756.5 1057.06,-756.5 1063.06,-756.5 1069.06,-762.5 1069.06,-768.5 1069.06,-768.5 1069.06,-904.5 1069.06,-904.5 1069.06,-910.5 1063.06,-916.5 1057.06,-916.5 1057.06,-916.5 712,-916.5 712,-916.5 706,-916.5 700,-910.5 700,-904.5 700,-904.5 700,-768.5 700,-768.5 700,-762.5 706,-756.5 712,-756.5"/>
<text text-anchor="middle" x="884.53" y="-901.3" font-family="Times,serif" font-size="14.00">ActionMailbox::Ingresses::Mandrill::InboundEmailsController</text>
<polyline fill="none" stroke="black" points="700,-894.5 1069.06,-894.5 "/>
<text text-anchor="start" x="708" y="-879.3" font-family="Times,serif" font-size="14.00">create</text>
<polyline fill="none" stroke="black" points="700,-872.5 1069.06,-872.5 "/>
<polyline fill="none" stroke="black" points="700,-848.5 1069.06,-848.5 "/>
<text text-anchor="start" x="708" y="-833.3" font-family="Times,serif" font-size="14.00">_layout</text>
<text text-anchor="start" x="708" y="-819.3" font-family="Times,serif" font-size="14.00">authenticate</text>
<text text-anchor="start" x="708" y="-805.3" font-family="Times,serif" font-size="14.00">authenticated?</text>
<text text-anchor="start" x="708" y="-791.3" font-family="Times,serif" font-size="14.00">events</text>
<text text-anchor="start" x="708" y="-777.3" font-family="Times,serif" font-size="14.00">key</text>
<text text-anchor="start" x="708" y="-763.3" font-family="Times,serif" font-size="14.00">raw_emails</text>
</g>
<!-- ActionMailbox::Ingresses::Mailgun::InboundEmailsController -->
<g id="node17" class="node">
<title>ActionMailbox::Ingresses::Mailgun::InboundEmailsController</title>
<path fill="none" stroke="black" d="M880,-504.5C880,-504.5 1223.51,-504.5 1223.51,-504.5 1229.51,-504.5 1235.51,-510.5 1235.51,-516.5 1235.51,-516.5 1235.51,-624.5 1235.51,-624.5 1235.51,-630.5 1229.51,-636.5 1223.51,-636.5 1223.51,-636.5 880,-636.5 880,-636.5 874,-636.5 868,-630.5 868,-624.5 868,-624.5 868,-516.5 868,-516.5 868,-510.5 874,-504.5 880,-504.5"/>
<text text-anchor="middle" x="1051.76" y="-621.3" font-family="Times,serif" font-size="14.00">ActionMailbox::Ingresses::Mailgun::InboundEmailsController</text>
<polyline fill="none" stroke="black" points="868,-614.5 1235.51,-614.5 "/>
<text text-anchor="start" x="876" y="-599.3" font-family="Times,serif" font-size="14.00">create</text>
<polyline fill="none" stroke="black" points="868,-592.5 1235.51,-592.5 "/>
<polyline fill="none" stroke="black" points="868,-568.5 1235.51,-568.5 "/>
<text text-anchor="start" x="876" y="-553.3" font-family="Times,serif" font-size="14.00">_layout</text>
<text text-anchor="start" x="876" y="-539.3" font-family="Times,serif" font-size="14.00">authenticate</text>
<text text-anchor="start" x="876" y="-525.3" font-family="Times,serif" font-size="14.00">authenticated?</text>
<text text-anchor="start" x="876" y="-511.3" font-family="Times,serif" font-size="14.00">key</text>
</g>
<!-- ActionMailbox::Ingresses::Relay::InboundEmailsController -->
<g id="node18" class="node">
<title>ActionMailbox::Ingresses::Relay::InboundEmailsController</title>
<path fill="none" stroke="black" d="M320,-952.5C320,-952.5 648.72,-952.5 648.72,-952.5 654.72,-952.5 660.72,-958.5 660.72,-964.5 660.72,-964.5 660.72,-1044.5 660.72,-1044.5 660.72,-1050.5 654.72,-1056.5 648.72,-1056.5 648.72,-1056.5 320,-1056.5 320,-1056.5 314,-1056.5 308,-1050.5 308,-1044.5 308,-1044.5 308,-964.5 308,-964.5 308,-958.5 314,-952.5 320,-952.5"/>
<text text-anchor="middle" x="484.36" y="-1041.3" font-family="Times,serif" font-size="14.00">ActionMailbox::Ingresses::Relay::InboundEmailsController</text>
<polyline fill="none" stroke="black" points="308,-1034.5 660.72,-1034.5 "/>
<text text-anchor="start" x="316" y="-1019.3" font-family="Times,serif" font-size="14.00">create</text>
<polyline fill="none" stroke="black" points="308,-1012.5 660.72,-1012.5 "/>
<polyline fill="none" stroke="black" points="308,-988.5 660.72,-988.5 "/>
<text text-anchor="start" x="316" y="-973.3" font-family="Times,serif" font-size="14.00">_layout</text>
<text text-anchor="start" x="316" y="-959.3" font-family="Times,serif" font-size="14.00">require_valid_rfc822_message</text>
</g>
<!-- Rails::Conductor::BaseController -->
<g id="node19" class="node">
<title>Rails::Conductor::BaseController</title>
<path fill="none" stroke="black" d="M12,-392.5C12,-392.5 192.2,-392.5 192.2,-392.5 198.2,-392.5 204.2,-398.5 204.2,-404.5 204.2,-404.5 204.2,-486.5 204.2,-486.5 204.2,-492.5 198.2,-498.5 192.2,-498.5 192.2,-498.5 12,-498.5 12,-498.5 6,-498.5 0,-492.5 0,-486.5 0,-486.5 0,-404.5 0,-404.5 0,-398.5 6,-392.5 12,-392.5"/>
<text text-anchor="middle" x="102.1" y="-483.3" font-family="Times,serif" font-size="14.00">Rails::Conductor::BaseController</text>
<polyline fill="none" stroke="black" points="0,-476.5 204.2,-476.5 "/>
<polyline fill="none" stroke="black" points="0,-452.5 204.2,-452.5 "/>
<polyline fill="none" stroke="black" points="0,-428.5 204.2,-428.5 "/>
<text text-anchor="start" x="8" y="-413.3" font-family="Times,serif" font-size="14.00">_layout</text>
<text text-anchor="start" x="8" y="-399.3" font-family="Times,serif" font-size="14.00">ensure_development_env</text>
</g>
<!-- Rails::Conductor::ActionMailbox::InboundEmailsController -->
<g id="node20" class="node">
<title>Rails::Conductor::ActionMailbox::InboundEmailsController</title>
<path fill="none" stroke="black" d="M796,-280.5C796,-280.5 1127.86,-280.5 1127.86,-280.5 1133.86,-280.5 1139.86,-286.5 1139.86,-292.5 1139.86,-292.5 1139.86,-428.5 1139.86,-428.5 1139.86,-434.5 1133.86,-440.5 1127.86,-440.5 1127.86,-440.5 796,-440.5 796,-440.5 790,-440.5 784,-434.5 784,-428.5 784,-428.5 784,-292.5 784,-292.5 784,-286.5 790,-280.5 796,-280.5"/>
<text text-anchor="middle" x="961.93" y="-425.3" font-family="Times,serif" font-size="14.00">Rails::Conductor::ActionMailbox::InboundEmailsController</text>
<polyline fill="none" stroke="black" points="784,-418.5 1139.86,-418.5 "/>
<text text-anchor="start" x="792" y="-403.3" font-family="Times,serif" font-size="14.00">create</text>
<text text-anchor="start" x="792" y="-389.3" font-family="Times,serif" font-size="14.00">index</text>
<text text-anchor="start" x="792" y="-375.3" font-family="Times,serif" font-size="14.00">new</text>
<text text-anchor="start" x="792" y="-361.3" font-family="Times,serif" font-size="14.00">show</text>
<polyline fill="none" stroke="black" points="784,-354.5 1139.86,-354.5 "/>
<polyline fill="none" stroke="black" points="784,-330.5 1139.86,-330.5 "/>
<text text-anchor="start" x="792" y="-315.3" font-family="Times,serif" font-size="14.00">_layout</text>
<text text-anchor="start" x="792" y="-301.3" font-family="Times,serif" font-size="14.00">create_inbound_email</text>
<text text-anchor="start" x="792" y="-287.3" font-family="Times,serif" font-size="14.00">new_mail</text>
</g>
<!-- Rails::Conductor::ActionMailbox::ReroutesController -->
<g id="node21" class="node">
<title>Rails::Conductor::ActionMailbox::ReroutesController</title>
<path fill="none" stroke="black" d="M936,-980.5C936,-980.5 1232.08,-980.5 1232.08,-980.5 1238.08,-980.5 1244.08,-986.5 1244.08,-992.5 1244.08,-992.5 1244.08,-1072.5 1244.08,-1072.5 1244.08,-1078.5 1238.08,-1084.5 1232.08,-1084.5 1232.08,-1084.5 936,-1084.5 936,-1084.5 930,-1084.5 924,-1078.5 924,-1072.5 924,-1072.5 924,-992.5 924,-992.5 924,-986.5 930,-980.5 936,-980.5"/>
<text text-anchor="middle" x="1084.04" y="-1069.3" font-family="Times,serif" font-size="14.00">Rails::Conductor::ActionMailbox::ReroutesController</text>
<polyline fill="none" stroke="black" points="924,-1062.5 1244.08,-1062.5 "/>
<text text-anchor="start" x="932" y="-1047.3" font-family="Times,serif" font-size="14.00">create</text>
<polyline fill="none" stroke="black" points="924,-1040.5 1244.08,-1040.5 "/>
<polyline fill="none" stroke="black" points="924,-1016.5 1244.08,-1016.5 "/>
<text text-anchor="start" x="932" y="-1001.3" font-family="Times,serif" font-size="14.00">_layout</text>
<text text-anchor="start" x="932" y="-987.3" font-family="Times,serif" font-size="14.00">reroute</text>
</g>
</g>
</svg>
