<?xml version="1.0" encoding="UTF-8" standalone="no"?>
<!DOCTYPE svg PUBLIC "-//W3C//DTD SVG 1.1//EN"
 "http://www.w3.org/Graphics/SVG/1.1/DTD/svg11.dtd">
<!-- Generated by graphviz version 2.43.0 (0)
 -->
<!-- Title: models_diagram Pages: 1 -->
<svg width="4047pt" height="225pt"
 viewBox="0.00 0.00 4046.69 225.00" xmlns="http://www.w3.org/2000/svg" xmlns:xlink="http://www.w3.org/1999/xlink">
<g id="graph0" class="graph" transform="scale(1 1) rotate(0) translate(4 221)">
<title>models_diagram</title>
<polygon fill="transparent" stroke="transparent" points="-4,4 -4,-221 4042.69,-221 4042.69,4 -4,4"/>
<!-- _diagram_info -->
<g id="node1" class="node">
<title>_diagram_info</title>
<text text-anchor="start" x="8" y="-202.6" font-family="Times,serif" font-size="13.00">Models diagram</text>
<text text-anchor="start" x="8" y="-189.6" font-family="Times,serif" font-size="13.00">Date: Nov 23 2019 &#45; 14:26</text>
<text text-anchor="start" x="8" y="-176.6" font-family="Times,serif" font-size="13.00">Migration version: 0</text>
<text text-anchor="start" x="8" y="-163.6" font-family="Times,serif" font-size="13.00">Generated by RailRoady 1.5.3</text>
<text text-anchor="start" x="8" y="-150.6" font-family="Times,serif" font-size="13.00">http://railroady.prestonlee.com</text>
</g>
<!-- Lobby -->
<g id="node2" class="node">
<title>Lobby</title>
<ellipse fill="none" stroke="black" cx="240.72" cy="-90" rx="33.39" ry="18"/>
<text text-anchor="middle" x="240.72" y="-85.8" font-family="Times,serif" font-size="14.00">Lobby</text>
</g>
<!-- LobbyMessage -->
<g id="node3" class="node">
<title>LobbyMessage</title>
<ellipse fill="none" stroke="black" cx="165.72" cy="-18" rx="64.28" ry="18"/>
<text text-anchor="middle" x="165.72" y="-13.8" font-family="Times,serif" font-size="14.00">LobbyMessage</text>
</g>
<!-- Lobby&#45;&gt;LobbyMessage -->
<g id="edge1" class="edge">
<title>Lobby&#45;&gt;LobbyMessage</title>
<path fill="none" stroke="#a78ca0" d="M218.83,-68.57C210.04,-60.36 199.85,-50.85 190.76,-42.37"/>
<ellipse fill="none" stroke="#a78ca0" cx="221.89" cy="-71.43" rx="4" ry="4"/>
<polygon fill="#a78ca0" stroke="#a78ca0" points="190.75,-42.36 186.51,-32.25 187.1,-38.95 183.44,-35.54 183.44,-35.54 183.44,-35.54 187.1,-38.95 180.37,-38.83 190.75,-42.36 190.75,-42.36"/>
</g>
<!-- QueuedVideo -->
<g id="node4" class="node">
<title>QueuedVideo</title>
<ellipse fill="none" stroke="black" cx="306.72" cy="-18" rx="58.89" ry="18"/>
<text text-anchor="middle" x="306.72" y="-13.8" font-family="Times,serif" font-size="14.00">QueuedVideo</text>
</g>
<!-- Lobby&#45;&gt;QueuedVideo -->
<g id="edge2" class="edge">
<title>Lobby&#45;&gt;QueuedVideo</title>
<path fill="none" stroke="#2499e5" d="M260.87,-67.63C268.18,-59.87 276.49,-51.06 284.01,-43.09"/>
<ellipse fill="none" stroke="#2499e5" cx="258.11" cy="-70.55" rx="4" ry="4"/>
<polygon fill="#2499e5" stroke="#2499e5" points="284.33,-42.74 294.47,-38.55 287.76,-39.11 291.19,-35.47 291.19,-35.47 291.19,-35.47 287.76,-39.11 287.92,-32.38 284.33,-42.74 284.33,-42.74"/>
</g>
<!-- ApplicationRecord -->
<g id="node5" class="node">
<title>ApplicationRecord</title>
<ellipse fill="none" stroke="black" cx="270.72" cy="-180.5" rx="77.29" ry="18"/>
<text text-anchor="middle" x="270.72" y="-176.3" font-family="Times,serif" font-size="14.00">ApplicationRecord</text>
</g>
<!-- ApplicationRecord&#45;&gt;Lobby -->
<g id="edge3" class="edge">
<title>ApplicationRecord&#45;&gt;Lobby</title>
<path fill="none" stroke="black" d="M264.94,-162.44C259.62,-146.76 251.79,-123.67 246.49,-108.01"/>
</g>
<!-- ApplicationRecord&#45;&gt;LobbyMessage -->
<g id="edge4" class="edge">
<title>ApplicationRecord&#45;&gt;LobbyMessage</title>
<path fill="none" stroke="black" d="M249.65,-162.94C233.81,-149.56 212.55,-129.48 198.72,-108 184,-85.14 174.55,-54.77 169.69,-36.08"/>
</g>
<!-- ApplicationRecord&#45;&gt;QueuedVideo -->
<g id="edge5" class="edge">
<title>ApplicationRecord&#45;&gt;QueuedVideo</title>
<path fill="none" stroke="black" d="M274.57,-162.32C281.5,-131.43 295.99,-66.85 302.9,-36.05"/>
</g>
<!-- User -->
<g id="node6" class="node">
<title>User</title>
<ellipse fill="none" stroke="black" cx="356.72" cy="-90" rx="27" ry="18"/>
<text text-anchor="middle" x="356.72" y="-85.8" font-family="Times,serif" font-size="14.00">User</text>
</g>
<!-- ApplicationRecord&#45;&gt;User -->
<g id="edge6" class="edge">
<title>ApplicationRecord&#45;&gt;User</title>
<path fill="none" stroke="black" d="M286.9,-162.85C302.95,-146.33 327.32,-121.26 342.61,-105.52"/>
</g>
<!-- ActiveStorage::Variant -->
<g id="node7" class="node">
<title>ActiveStorage::Variant</title>
<polygon fill="none" stroke="black" points="511.01,-198.5 366.43,-198.5 366.43,-162.5 511.01,-162.5 511.01,-198.5"/>
<text text-anchor="middle" x="438.72" y="-176.3" font-family="Times,serif" font-size="14.00">ActiveStorage::Variant</text>
</g>
<!-- ActiveStorage::Blob -->
<g id="node8" class="node">
<title>ActiveStorage::Blob</title>
<ellipse fill="none" stroke="black" cx="611.72" cy="-180.5" rx="82.61" ry="18"/>
<text text-anchor="middle" x="611.72" y="-176.3" font-family="Times,serif" font-size="14.00">ActiveStorage::Blob</text>
</g>
<!-- ActiveStorage::Filename -->
<g id="node9" class="node">
<title>ActiveStorage::Filename</title>
<polygon fill="none" stroke="black" points="868.68,-198.5 712.76,-198.5 712.76,-162.5 868.68,-162.5 868.68,-198.5"/>
<text text-anchor="middle" x="790.72" y="-176.3" font-family="Times,serif" font-size="14.00">ActiveStorage::Filename</text>
</g>
<!-- ActiveStorage::Variation -->
<g id="node10" class="node">
<title>ActiveStorage::Variation</title>
<polygon fill="none" stroke="black" points="1042.4,-198.5 887.04,-198.5 887.04,-162.5 1042.4,-162.5 1042.4,-198.5"/>
<text text-anchor="middle" x="964.72" y="-176.3" font-family="Times,serif" font-size="14.00">ActiveStorage::Variation</text>
</g>
<!-- ActiveStorage::Attachment -->
<g id="node11" class="node">
<title>ActiveStorage::Attachment</title>
<ellipse fill="none" stroke="black" cx="1166.72" cy="-180.5" rx="106.73" ry="18"/>
<text text-anchor="middle" x="1166.72" y="-176.3" font-family="Times,serif" font-size="14.00">ActiveStorage::Attachment</text>
</g>
<!-- ActiveStorage::Current -->
<g id="node12" class="node">
<title>ActiveStorage::Current</title>
<polygon fill="none" stroke="black" points="1493.85,-108 1347.59,-108 1347.59,-72 1493.85,-72 1493.85,-108"/>
<text text-anchor="middle" x="1420.72" y="-85.8" font-family="Times,serif" font-size="14.00">ActiveStorage::Current</text>
</g>
<!-- ActiveStorage::Blob::Identifiable -->
<g id="node13" class="node">
<title>ActiveStorage::Blob::Identifiable</title>
<polygon fill="none" stroke="black" stroke-dasharray="1,5" points="1769.85,-198.5 1567.59,-198.5 1567.59,-162.5 1769.85,-162.5 1769.85,-198.5"/>
<text text-anchor="middle" x="1668.72" y="-176.3" font-family="Times,serif" font-size="14.00">ActiveStorage::Blob::Identifiable</text>
</g>
<!-- ActiveStorage::Blob::Analyzable -->
<g id="node14" class="node">
<title>ActiveStorage::Blob::Analyzable</title>
<polygon fill="none" stroke="black" stroke-dasharray="1,5" points="1990.83,-198.5 1788.61,-198.5 1788.61,-162.5 1990.83,-162.5 1990.83,-198.5"/>
<text text-anchor="middle" x="1889.72" y="-176.3" font-family="Times,serif" font-size="14.00">ActiveStorage::Blob::Analyzable</text>
</g>
<!-- ActiveStorage::Blob::Representable -->
<g id="node15" class="node">
<title>ActiveStorage::Blob::Representable</title>
<polygon fill="none" stroke="black" stroke-dasharray="1,5" points="2226.89,-198.5 2008.55,-198.5 2008.55,-162.5 2226.89,-162.5 2226.89,-198.5"/>
<text text-anchor="middle" x="2117.72" y="-176.3" font-family="Times,serif" font-size="14.00">ActiveStorage::Blob::Representable</text>
</g>
<!-- ActiveStorage::Preview -->
<g id="node16" class="node">
<title>ActiveStorage::Preview</title>
<polygon fill="none" stroke="black" points="2394.46,-198.5 2244.98,-198.5 2244.98,-162.5 2394.46,-162.5 2394.46,-198.5"/>
<text text-anchor="middle" x="2319.72" y="-176.3" font-family="Times,serif" font-size="14.00">ActiveStorage::Preview</text>
</g>
<!-- ActionMailbox::InboundEmail -->
<g id="node17" class="node">
<title>ActionMailbox::InboundEmail</title>
<ellipse fill="none" stroke="black" cx="2532.72" cy="-180.5" rx="119.81" ry="18"/>
<text text-anchor="middle" x="2532.72" y="-176.3" font-family="Times,serif" font-size="14.00">ActionMailbox::InboundEmail</text>
</g>
<!-- ActionMailbox::InboundEmail::Incineratable -->
<g id="node18" class="node">
<title>ActionMailbox::InboundEmail::Incineratable</title>
<polygon fill="none" stroke="black" stroke-dasharray="1,5" points="2940.98,-198.5 2670.46,-198.5 2670.46,-162.5 2940.98,-162.5 2940.98,-198.5"/>
<text text-anchor="middle" x="2805.72" y="-176.3" font-family="Times,serif" font-size="14.00">ActionMailbox::InboundEmail::Incineratable</text>
</g>
<!-- ActionMailbox::InboundEmail::Incineratable::Incineration -->
<g id="node19" class="node">
<title>ActionMailbox::InboundEmail::Incineratable::Incineration</title>
<polygon fill="none" stroke="black" points="3304.4,-198.5 2959.04,-198.5 2959.04,-162.5 3304.4,-162.5 3304.4,-198.5"/>
<text text-anchor="middle" x="3131.72" y="-176.3" font-family="Times,serif" font-size="14.00">ActionMailbox::InboundEmail::Incineratable::Incineration</text>
</g>
<!-- ActionMailbox::InboundEmail::Routable -->
<g id="node20" class="node">
<title>ActionMailbox::InboundEmail::Routable</title>
<polygon fill="none" stroke="black" stroke-dasharray="1,5" points="3570.47,-198.5 3322.97,-198.5 3322.97,-162.5 3570.47,-162.5 3570.47,-198.5"/>
<text text-anchor="middle" x="3446.72" y="-176.3" font-family="Times,serif" font-size="14.00">ActionMailbox::InboundEmail::Routable</text>
</g>
<!-- ActionMailbox::InboundEmail::MessageId -->
<g id="node21" class="node">
<title>ActionMailbox::InboundEmail::MessageId</title>
<polygon fill="none" stroke="black" stroke-dasharray="1,5" points="3846.57,-198.5 3588.87,-198.5 3588.87,-162.5 3846.57,-162.5 3846.57,-198.5"/>
<text text-anchor="middle" x="3717.72" y="-176.3" font-family="Times,serif" font-size="14.00">ActionMailbox::InboundEmail::MessageId</text>
</g>
<!-- ActionText::RichText -->
<g id="node22" class="node">
<title>ActionText::RichText</title>
<ellipse fill="none" stroke="black" cx="3951.72" cy="-180.5" rx="86.94" ry="18"/>
<text text-anchor="middle" x="3951.72" y="-176.3" font-family="Times,serif" font-size="14.00">ActionText::RichText</text>
</g>
<!-- ActiveSupport::CurrentAttributes -->
<g id="node23" class="node">
<title>ActiveSupport::CurrentAttributes</title>
<ellipse fill="none" stroke="black" cx="1420.72" cy="-180.5" rx="128.97" ry="18"/>
<text text-anchor="middle" x="1420.72" y="-176.3" font-family="Times,serif" font-size="14.00">ActiveSupport::CurrentAttributes</text>
</g>
<!-- ActiveSupport::CurrentAttributes&#45;&gt;ActiveStorage::Current -->
<g id="edge7" class="edge">
<title>ActiveSupport::CurrentAttributes&#45;&gt;ActiveStorage::Current</title>
<path fill="none" stroke="black" d="M1420.72,-162.44C1420.72,-146.76 1420.72,-123.67 1420.72,-108.01"/>
</g>
</g>
</svg>
