<?xml version="1.0" encoding="UTF-8" standalone="no"?>
<!DOCTYPE svg PUBLIC "-//W3C//DTD SVG 1.1//EN"
 "http://www.w3.org/Graphics/SVG/1.1/DTD/svg11.dtd">
<!-- Generated by graphviz version 2.43.0 (0)
 -->
<!-- Title: models_diagram Pages: 1 -->
<svg width="3182pt" height="162pt"
 viewBox="0.00 0.00 3181.64 162.00" xmlns="http://www.w3.org/2000/svg" xmlns:xlink="http://www.w3.org/1999/xlink">
<g id="graph0" class="graph" transform="scale(1 1) rotate(0) translate(4 158)">
<title>models_diagram</title>
<polygon fill="transparent" stroke="transparent" points="-4,4 -4,-158 3177.64,-158 3177.64,4 -4,4"/>
<!-- _diagram_info -->
<g id="node1" class="node">
<title>_diagram_info</title>
<text text-anchor="start" x="8" y="-139.6" font-family="Times,serif" font-size="13.00">Models diagram</text>
<text text-anchor="start" x="8" y="-126.6" font-family="Times,serif" font-size="13.00">Date: Nov 23 2019 &#45; 14:26</text>
<text text-anchor="start" x="8" y="-113.6" font-family="Times,serif" font-size="13.00">Migration version: 0</text>
<text text-anchor="start" x="8" y="-100.6" font-family="Times,serif" font-size="13.00">Generated by RailRoady 1.5.3</text>
<text text-anchor="start" x="8" y="-87.6" font-family="Times,serif" font-size="13.00">http://railroady.prestonlee.com</text>
</g>
<!-- ApplicationRecord -->
<g id="node2" class="node">
<title>ApplicationRecord</title>
<ellipse fill="none" stroke="black" cx="270.72" cy="-117.5" rx="77.29" ry="18"/>
<text text-anchor="middle" x="270.72" y="-113.3" font-family="Times,serif" font-size="14.00">ApplicationRecord</text>
</g>
<!-- ActiveStorage::Variant -->
<g id="node3" class="node">
<title>ActiveStorage::Variant</title>
<polygon fill="none" stroke="black" points="366.58,-95.5 366.58,-139.5 510.87,-139.5 510.87,-95.5 366.58,-95.5"/>
<text text-anchor="middle" x="438.72" y="-124.3" font-family="Times,serif" font-size="14.00">ActiveStorage::Variant</text>
<polyline fill="none" stroke="black" points="366.58,-117.5 510.87,-117.5 "/>
<text text-anchor="middle" x="438.72" y="-102.3" font-family="Times,serif" font-size="14.00"> </text>
</g>
<!-- ActiveStorage::Filename -->
<g id="node4" class="node">
<title>ActiveStorage::Filename</title>
<polygon fill="none" stroke="black" points="528.74,-95.5 528.74,-139.5 684.7,-139.5 684.7,-95.5 528.74,-95.5"/>
<text text-anchor="middle" x="606.72" y="-124.3" font-family="Times,serif" font-size="14.00">ActiveStorage::Filename</text>
<polyline fill="none" stroke="black" points="528.74,-117.5 684.7,-117.5 "/>
<text text-anchor="middle" x="606.72" y="-102.3" font-family="Times,serif" font-size="14.00"> </text>
</g>
<!-- ActiveStorage::Variation -->
<g id="node5" class="node">
<title>ActiveStorage::Variation</title>
<polygon fill="none" stroke="black" points="703.13,-95.5 703.13,-139.5 858.31,-139.5 858.31,-95.5 703.13,-95.5"/>
<text text-anchor="middle" x="780.72" y="-124.3" font-family="Times,serif" font-size="14.00">ActiveStorage::Variation</text>
<polyline fill="none" stroke="black" points="703.13,-117.5 858.31,-117.5 "/>
<text text-anchor="middle" x="780.72" y="-102.3" font-family="Times,serif" font-size="14.00"> </text>
</g>
<!-- ActiveStorage::Current -->
<g id="node6" class="node">
<title>ActiveStorage::Current</title>
<polygon fill="none" stroke="black" points="932.41,-0.5 932.41,-44.5 1079.03,-44.5 1079.03,-0.5 932.41,-0.5"/>
<text text-anchor="middle" x="1005.72" y="-29.3" font-family="Times,serif" font-size="14.00">ActiveStorage::Current</text>
<polyline fill="none" stroke="black" points="932.41,-22.5 1079.03,-22.5 "/>
<text text-anchor="middle" x="1005.72" y="-7.3" font-family="Times,serif" font-size="14.00"> </text>
</g>
<!-- ActiveStorage::Blob::Identifiable -->
<g id="node7" class="node">
<title>ActiveStorage::Blob::Identifiable</title>
<polygon fill="none" stroke="black" stroke-dasharray="1,5" points="1354.85,-135.5 1152.59,-135.5 1152.59,-99.5 1354.85,-99.5 1354.85,-135.5"/>
<text text-anchor="middle" x="1253.72" y="-113.3" font-family="Times,serif" font-size="14.00">ActiveStorage::Blob::Identifiable</text>
</g>
<!-- ActiveStorage::Blob::Analyzable -->
<g id="node8" class="node">
<title>ActiveStorage::Blob::Analyzable</title>
<polygon fill="none" stroke="black" stroke-dasharray="1,5" points="1575.83,-135.5 1373.61,-135.5 1373.61,-99.5 1575.83,-99.5 1575.83,-135.5"/>
<text text-anchor="middle" x="1474.72" y="-113.3" font-family="Times,serif" font-size="14.00">ActiveStorage::Blob::Analyzable</text>
</g>
<!-- ActiveStorage::Blob::Representable -->
<g id="node9" class="node">
<title>ActiveStorage::Blob::Representable</title>
<polygon fill="none" stroke="black" stroke-dasharray="1,5" points="1811.89,-135.5 1593.55,-135.5 1593.55,-99.5 1811.89,-99.5 1811.89,-135.5"/>
<text text-anchor="middle" x="1702.72" y="-113.3" font-family="Times,serif" font-size="14.00">ActiveStorage::Blob::Representable</text>
</g>
<!-- ActiveStorage::Preview -->
<g id="node10" class="node">
<title>ActiveStorage::Preview</title>
<polygon fill="none" stroke="black" points="1829.85,-95.5 1829.85,-139.5 1979.59,-139.5 1979.59,-95.5 1829.85,-95.5"/>
<text text-anchor="middle" x="1904.72" y="-124.3" font-family="Times,serif" font-size="14.00">ActiveStorage::Preview</text>
<polyline fill="none" stroke="black" points="1829.85,-117.5 1979.59,-117.5 "/>
<text text-anchor="middle" x="1904.72" y="-102.3" font-family="Times,serif" font-size="14.00"> </text>
</g>
<!-- ActionMailbox::InboundEmail::Incineratable -->
<g id="node11" class="node">
<title>ActionMailbox::InboundEmail::Incineratable</title>
<polygon fill="none" stroke="black" stroke-dasharray="1,5" points="2267.98,-135.5 1997.46,-135.5 1997.46,-99.5 2267.98,-99.5 2267.98,-135.5"/>
<text text-anchor="middle" x="2132.72" y="-113.3" font-family="Times,serif" font-size="14.00">ActionMailbox::InboundEmail::Incineratable</text>
</g>
<!-- ActionMailbox::InboundEmail::Incineratable::Incineration -->
<g id="node12" class="node">
<title>ActionMailbox::InboundEmail::Incineratable::Incineration</title>
<polygon fill="none" stroke="black" points="2285.88,-95.5 2285.88,-139.5 2631.56,-139.5 2631.56,-95.5 2285.88,-95.5"/>
<text text-anchor="middle" x="2458.72" y="-124.3" font-family="Times,serif" font-size="14.00">ActionMailbox::InboundEmail::Incineratable::Incineration</text>
<polyline fill="none" stroke="black" points="2285.88,-117.5 2631.56,-117.5 "/>
<text text-anchor="middle" x="2458.72" y="-102.3" font-family="Times,serif" font-size="14.00"> </text>
</g>
<!-- ActionMailbox::InboundEmail::Routable -->
<g id="node13" class="node">
<title>ActionMailbox::InboundEmail::Routable</title>
<polygon fill="none" stroke="black" stroke-dasharray="1,5" points="2897.47,-135.5 2649.97,-135.5 2649.97,-99.5 2897.47,-99.5 2897.47,-135.5"/>
<text text-anchor="middle" x="2773.72" y="-113.3" font-family="Times,serif" font-size="14.00">ActionMailbox::InboundEmail::Routable</text>
</g>
<!-- ActionMailbox::InboundEmail::MessageId -->
<g id="node14" class="node">
<title>ActionMailbox::InboundEmail::MessageId</title>
<polygon fill="none" stroke="black" stroke-dasharray="1,5" points="3173.57,-135.5 2915.87,-135.5 2915.87,-99.5 3173.57,-99.5 3173.57,-135.5"/>
<text text-anchor="middle" x="3044.72" y="-113.3" font-family="Times,serif" font-size="14.00">ActionMailbox::InboundEmail::MessageId</text>
</g>
<!-- ActiveSupport::CurrentAttributes -->
<g id="node15" class="node">
<title>ActiveSupport::CurrentAttributes</title>
<ellipse fill="none" stroke="black" cx="1005.72" cy="-117.5" rx="128.97" ry="18"/>
<text text-anchor="middle" x="1005.72" y="-113.3" font-family="Times,serif" font-size="14.00">ActiveSupport::CurrentAttributes</text>
</g>
<!-- ActiveSupport::CurrentAttributes&#45;&gt;ActiveStorage::Current -->
<g id="edge1" class="edge">
<title>ActiveSupport::CurrentAttributes&#45;&gt;ActiveStorage::Current</title>
<path fill="none" stroke="black" d="M1005.72,-99.44C1005.72,-84.03 1005.72,-61.27 1005.72,-44.69"/>
</g>
</g>
</svg>
